<svg width="145" height="43" viewBox="0 0 145 43" fill="none" xmlns="http://www.w3.org/2000/svg">
<path d="M140 36.9288C140 37.4558 139.896 37.9775 139.695 38.4642C139.494 38.951 139.199 39.3932 138.827 39.7656C138.455 40.138 138.014 40.4332 137.528 40.6345C137.042 40.8357 136.522 40.939 135.996 40.9385H4.96562C3.90361 40.9396 2.88464 40.5178 2.13281 39.7659C1.38097 39.014 0.957835 37.9935 0.956451 36.9288V4.95334C0.957835 3.88823 1.38081 2.86721 2.13249 2.11446C2.88417 1.3617 3.90313 0.938753 4.96562 0.938477H135.995C136.521 0.938477 137.042 1.04233 137.528 1.24411C138.013 1.44589 138.455 1.74164 138.827 2.11447C139.198 2.4873 139.493 2.9299 139.694 3.417C139.896 3.9041 139.999 4.42615 139.999 4.95334L140 36.9288Z" fill="white"/>
<path d="M140 36.9288C140 37.4558 139.896 37.9775 139.695 38.4642C139.494 38.951 139.199 39.3932 138.827 39.7656C138.455 40.138 138.014 40.4332 137.528 40.6345C137.042 40.8357 136.522 40.939 135.996 40.9385H4.96562C3.90361 40.9396 2.88464 40.5178 2.13281 39.7659C1.38097 39.014 0.957835 37.9935 0.956451 36.9288V4.95334C0.957835 3.88823 1.38081 2.86721 2.13249 2.11446C2.88417 1.3617 3.90313 0.938753 4.96562 0.938477H135.995C136.521 0.938477 137.042 1.04233 137.528 1.24411C138.013 1.44589 138.455 1.74164 138.827 2.11447C139.198 2.4873 139.493 2.9299 139.694 3.417C139.896 3.9041 139.999 4.42615 139.999 4.95334L140 36.9288Z" fill="black"/>
<path d="M31.4904 20.7184C31.4602 17.3443 34.2464 15.7027 34.3738 15.6263C32.7959 13.32 30.35 13.0049 29.4906 12.9798C27.4364 12.763 25.4438 14.212 24.3974 14.212C23.3301 14.212 21.7187 13.0007 19.982 13.0363C17.7471 13.0708 15.6564 14.3679 14.5097 16.3822C12.1433 20.4892 13.9082 26.5246 16.1754 29.8443C17.3096 31.4712 18.6348 33.2854 20.3694 33.2216C22.0665 33.1525 22.7004 32.138 24.7483 32.138C26.7774 32.138 27.3727 33.2216 29.1418 33.1808C30.9631 33.1525 32.1097 31.5476 33.2042 29.9071C34.5148 28.0447 35.0412 26.2084 35.062 26.1142C35.0203 26.0995 31.526 24.7616 31.4904 20.7184V20.7184ZM28.1486 10.7959C29.0613 9.65165 29.6859 8.09491 29.5125 6.51514C28.1914 6.57376 26.5393 7.43118 25.5879 8.55031C24.7462 9.53649 23.9943 11.1529 24.1885 12.673C25.6725 12.784 27.1962 11.9224 28.1486 10.7959V10.7959Z" fill="white"/>
<path d="M56.0707 32.9885H53.6991L52.3999 28.8962H47.8843L46.6467 32.9885H44.3377L48.8127 19.0563H51.576L56.0707 32.9885V32.9885ZM52.0083 27.1792L50.8334 23.5413C50.7092 23.1696 50.4752 22.2944 50.1327 20.9167H50.0909C49.9531 21.5092 49.7327 22.3844 49.4309 23.5413L48.2759 27.1792H52.0083ZM67.5562 27.8419C67.5562 29.5505 67.0936 30.901 66.1673 31.8924C65.3381 32.7749 64.3073 33.2157 63.0782 33.2157C61.7508 33.2157 60.7963 32.7414 60.2167 31.7908V37.062H57.9902V26.2444C57.9902 25.1713 57.962 24.071 57.9077 22.9424H59.8658L59.9901 24.5348H60.0319C60.7744 23.335 61.9012 22.7351 63.4134 22.7351C64.5956 22.7351 65.5824 23.2031 66.372 24.1401C67.1604 25.0792 67.5562 26.3124 67.5562 27.8419ZM65.2879 27.9236C65.2879 26.9458 65.0686 26.1397 64.6279 25.5042C64.1465 24.8436 63.5001 24.5128 62.6897 24.5128C62.1403 24.5128 61.6412 24.697 61.1952 25.0603C60.7483 25.4267 60.4559 25.9052 60.319 26.4977C60.258 26.7193 60.2233 26.9474 60.2157 27.1771V28.8532C60.2157 29.5829 60.4391 30.1996 60.8861 30.7042C61.3331 31.2067 61.9137 31.459 62.6281 31.459C63.4666 31.459 64.1193 31.1334 64.5862 30.4875C65.054 29.8394 65.2879 28.9851 65.2879 27.9236V27.9236ZM79.0824 27.8419C79.0824 29.5505 78.6198 30.901 77.6935 31.8924C76.8632 32.7749 75.8335 33.2157 74.6033 33.2157C73.276 33.2157 72.3215 32.7414 71.7419 31.7908V37.062H69.5154V26.2444C69.5154 25.1713 69.4872 24.071 69.4329 22.9424H71.391L71.5153 24.5348H71.557C72.2985 23.335 73.4253 22.7351 74.9386 22.7351C76.1197 22.7351 77.1066 23.2031 77.8982 24.1401C78.6856 25.0792 79.0824 26.3124 79.0824 27.8419V27.8419ZM76.8131 27.9236C76.8131 26.9458 76.5928 26.1397 76.1521 25.5042C75.6706 24.8436 75.0263 24.5128 74.2159 24.5128C73.6666 24.5128 73.1674 24.697 72.7194 25.0603C72.2724 25.4267 71.981 25.9052 71.8442 26.4977C71.7763 26.7741 71.7398 26.9992 71.7398 27.1771V28.8532C71.7398 29.5829 71.9643 30.1996 72.4092 30.7042C72.8562 31.2056 73.4368 31.459 74.1532 31.459C74.9929 31.459 75.6456 31.1334 76.1113 30.4875C76.5792 29.8394 76.8131 28.9851 76.8131 27.9236V27.9236ZM91.9694 29.0804C91.9694 30.2666 91.5559 31.2308 90.734 31.9751C89.8296 32.7875 88.567 33.1947 86.9483 33.1947C85.4528 33.1947 84.2539 32.9058 83.3496 32.3269L83.8644 30.4665C84.8408 31.0465 85.9134 31.3354 87.0809 31.3354C87.9206 31.3354 88.5733 31.1449 89.039 30.767C89.5058 30.388 89.7419 29.8813 89.7419 29.249C89.7419 28.6826 89.5466 28.2083 89.1633 27.822C88.778 27.4368 88.1409 27.0777 87.2459 26.7479C84.8126 25.8382 83.595 24.5076 83.595 22.7571C83.595 21.6139 84.0252 20.678 84.8837 19.9462C85.7421 19.2155 86.8804 18.8501 88.2965 18.8501C89.5612 18.8501 90.6149 19.071 91.4514 19.5117L90.8927 21.3313C90.1053 20.9041 89.2166 20.6905 88.2224 20.6905C87.437 20.6905 86.8209 20.8842 86.3802 21.2695C86.0095 21.6139 85.8215 22.0337 85.8215 22.532C85.8215 23.0817 86.0356 23.5381 86.4616 23.8962C86.8313 24.2259 87.506 24.585 88.4814 24.9703C89.6782 25.454 90.5575 26.0172 91.1204 26.6642C91.6874 27.3112 91.9694 28.1183 91.9694 29.0804ZM99.3497 24.6175H96.8955V29.495C96.8955 30.7356 97.3278 31.3543 98.1946 31.3543C98.5925 31.3543 98.9225 31.3208 99.1836 31.2506L99.2452 32.9456C98.8066 33.1099 98.2291 33.1926 97.5137 33.1926C96.6344 33.1926 95.9472 32.9236 95.4512 32.3855C94.9572 31.8474 94.7087 30.946 94.7087 29.6772V24.6133H93.2466V22.9382H94.7087V21.0988L96.8955 20.4372V22.9382H99.3497V24.6175V24.6175ZM110.401 27.8828C110.401 29.4269 109.96 30.6947 109.081 31.6862C108.161 32.7069 106.937 33.2157 105.411 33.2157C103.938 33.2157 102.768 32.7268 101.895 31.75C101.022 30.7712 100.585 29.5379 100.585 28.0503C100.585 26.4935 101.036 25.2184 101.935 24.227C102.837 23.2345 104.05 22.7383 105.576 22.7383C107.046 22.7383 108.227 23.2282 109.121 24.206C109.976 25.1545 110.401 26.3794 110.401 27.8828ZM108.093 27.9341C108.093 27.0138 107.894 26.2245 107.496 25.5639C107.03 24.7661 106.361 24.3673 105.496 24.3673C104.604 24.3673 103.92 24.7661 103.454 25.5639C103.055 26.2245 102.856 27.0274 102.856 27.9759C102.856 28.8972 103.055 29.6887 103.454 30.3472C103.935 31.1449 104.607 31.5438 105.477 31.5438C106.328 31.5438 106.995 31.1365 107.478 30.3273C107.887 29.651 108.093 28.8564 108.093 27.9341ZM117.641 24.9054C117.409 24.8635 117.175 24.8428 116.939 24.8436C116.156 24.8436 115.55 25.1388 115.124 25.7335C114.754 26.2569 114.569 26.9186 114.569 27.7174V32.9885H112.342V26.1062C112.344 25.0516 112.323 23.9971 112.277 22.9435H114.217L114.298 24.8656H114.36C114.596 24.205 114.965 23.6721 115.473 23.2733C115.938 22.9247 116.502 22.736 117.082 22.7351C117.288 22.7351 117.474 22.7498 117.639 22.776L117.641 24.9054V24.9054ZM127.599 27.4902C127.604 27.8295 127.577 28.1685 127.517 28.5025H120.838C120.863 29.495 121.186 30.255 121.807 30.7785C122.37 31.2454 123.098 31.4799 123.992 31.4799C124.981 31.4799 125.883 31.3229 126.694 31.0057L127.043 32.554C126.095 32.9686 124.975 33.1748 123.683 33.1748C122.13 33.1748 120.91 32.7163 120.022 31.8013C119.136 30.8853 118.693 29.6541 118.693 28.112C118.693 26.5982 119.105 25.3367 119.931 24.3306C120.796 23.2565 121.965 22.7194 123.435 22.7194C124.879 22.7194 125.973 23.2565 126.715 24.3306C127.303 25.1818 127.599 26.237 127.599 27.4902V27.4902ZM125.476 26.9112C125.491 26.2485 125.345 25.678 125.043 25.1954C124.658 24.5735 124.065 24.2636 123.27 24.2636C122.542 24.2636 121.949 24.5662 121.498 25.1734C121.127 25.656 120.907 26.236 120.839 26.9091L125.476 26.9112Z" fill="white"/>
<path d="M47.242 14.1306C46.6227 14.1306 46.087 14.1002 45.6411 14.0489V7.31317C46.2647 7.21659 46.895 7.16898 47.5261 7.17079C50.0794 7.17079 51.2553 8.43021 51.2553 10.4832C51.2553 12.8513 49.8664 14.1306 47.242 14.1306ZM47.6159 8.03448C47.2712 8.03448 46.9778 8.05542 46.7345 8.10567V13.2261C46.866 13.247 47.1188 13.2564 47.4738 13.2564C49.1468 13.2564 50.0993 12.3017 50.0993 10.5135C50.0993 8.91911 49.2377 8.03448 47.6159 8.03448V8.03448ZM54.9199 14.1819C53.4808 14.1819 52.5482 13.1046 52.5482 11.6421C52.5482 10.1178 53.5006 9.03113 55.0013 9.03113C56.4195 9.03113 57.373 10.0571 57.373 11.5615C57.373 13.1046 56.3903 14.1819 54.9199 14.1819ZM54.9617 9.83306C54.1711 9.83306 53.6646 10.5743 53.6646 11.6107C53.6646 12.6272 54.1815 13.3684 54.9512 13.3684C55.7209 13.3684 56.2378 12.5759 56.2378 11.5898C56.2378 10.5847 55.7313 9.83306 54.9617 9.83306ZM65.5793 9.13268L64.0389 14.0699H63.0353L62.3972 11.9258C62.2386 11.4014 62.1065 10.8692 62.0015 10.3314H61.9806C61.9002 10.8695 61.7477 11.4086 61.5858 11.9258L60.907 14.0699H59.893L58.4434 9.13268H59.5682L60.1258 11.4798C60.2574 12.0389 60.3681 12.5665 60.46 13.0648H60.4809C60.5613 12.6492 60.6929 12.13 60.8861 11.4903L61.5858 9.13373H62.4777L63.1471 11.4401C63.3089 11.9991 63.4405 12.5477 63.5429 13.0659H63.5721C63.6431 12.5581 63.7549 12.019 63.9063 11.4401L64.5047 9.13373L65.5793 9.13268V9.13268ZM71.25 14.0699H70.1555V11.2349C70.1555 10.3617 69.8214 9.92414 69.1624 9.92414C68.5139 9.92414 68.0679 10.4832 68.0679 11.1333V14.0699H66.9735V10.5439C66.9735 10.1073 66.963 9.63938 66.9328 9.13163H67.8956L67.9468 9.89378H67.9771C68.2716 9.36614 68.8689 9.03113 69.5383 9.03113C70.5722 9.03113 71.251 9.82364 71.251 11.1134L71.25 14.0699V14.0699ZM74.2681 14.0699H73.1726V6.86719H74.2681V14.0699ZM78.2585 14.1819C76.8204 14.1819 75.8868 13.1046 75.8868 11.6421C75.8868 10.1178 76.8392 9.03113 78.3389 9.03113C79.7581 9.03113 80.7105 10.0571 80.7105 11.5615C80.7116 13.1046 79.7278 14.1819 78.2585 14.1819ZM78.2992 9.83306C77.5086 9.83306 77.0021 10.5743 77.0021 11.6107C77.0021 12.6272 77.5201 13.3684 78.2877 13.3684C79.0584 13.3684 79.5743 12.5759 79.5743 11.5898C79.5754 10.5847 79.0699 9.83306 78.2992 9.83306V9.83306ZM85.0257 14.0699L84.9463 13.5014H84.9171C84.5829 13.9589 84.0952 14.1819 83.477 14.1819C82.5945 14.1819 81.9679 13.5621 81.9679 12.7288C81.9679 11.5102 83.0216 10.88 84.8461 10.88V10.7889C84.8461 10.1388 84.5025 9.81317 83.8237 9.81317C83.3381 9.81317 82.912 9.93566 82.5371 10.1796L82.3146 9.45827C82.7699 9.17351 83.3381 9.03113 84.0054 9.03113C85.292 9.03113 85.9416 9.71162 85.9416 11.0736V12.8921C85.9416 13.3904 85.9635 13.7767 86.0126 14.0709L85.0257 14.0699V14.0699ZM84.8753 11.6107C83.6597 11.6107 83.0498 11.9059 83.0498 12.6063C83.0498 13.1245 83.3642 13.3779 83.8007 13.3779C84.3573 13.3779 84.8753 12.9518 84.8753 12.3728V11.6107V11.6107ZM91.2561 14.0699L91.205 13.2774H91.1747C90.8603 13.8762 90.3319 14.1819 89.5936 14.1819C88.4062 14.1819 87.5269 13.135 87.5269 11.662C87.5269 10.1178 88.4385 9.03009 89.6834 9.03009C90.3423 9.03009 90.8092 9.25308 91.0723 9.70115H91.0943V6.86719H92.1898V12.7393C92.1898 13.2166 92.2012 13.6637 92.2305 14.0699H91.2561ZM91.0943 11.1647C91.0943 10.4738 90.6379 9.88436 89.9413 9.88436C89.1299 9.88436 88.6338 10.6057 88.6338 11.6212C88.6338 12.6168 89.1487 13.2983 89.9194 13.2983C90.6076 13.2983 91.0943 12.6984 91.0943 11.9876V11.1647ZM99.1356 14.1819C97.6975 14.1819 96.765 13.1046 96.765 11.6421C96.765 10.1178 97.7174 9.03113 99.217 9.03113C100.636 9.03113 101.589 10.0571 101.589 11.5615C101.59 13.1046 100.607 14.1819 99.1356 14.1819ZM99.1763 9.83306C98.3868 9.83306 97.8803 10.5743 97.8803 11.6107C97.8803 12.6272 98.3972 13.3684 99.1659 13.3684C99.9366 13.3684 100.452 12.5759 100.452 11.5898C100.455 10.5847 99.9481 9.83306 99.1763 9.83306ZM107.475 14.0699H106.379V11.2349C106.379 10.3617 106.045 9.92414 105.386 9.92414C104.737 9.92414 104.292 10.4832 104.292 11.1333V14.0699H103.197V10.5439C103.197 10.1073 103.187 9.63938 103.156 9.13163H104.119L104.17 9.89378H104.201C104.494 9.36614 105.092 9.03009 105.761 9.03009C106.795 9.03009 107.475 9.82259 107.475 11.1124V14.0699ZM114.838 9.95555H113.634V12.353C113.634 12.9633 113.845 13.2679 114.271 13.2679C114.464 13.2679 114.626 13.247 114.757 13.2166L114.787 14.05C114.575 14.1316 114.291 14.1725 113.938 14.1725C113.075 14.1725 112.559 13.6951 112.559 12.4451V9.95555H111.841V9.13268H112.559V8.22816L113.634 7.90257V9.13163H114.838V9.95555V9.95555ZM120.632 14.0699H119.539V11.2558C119.539 10.3722 119.205 9.92519 118.545 9.92519C117.978 9.92519 117.45 10.3115 117.45 11.0935V14.0699H116.356V6.86719H117.45V9.83306H117.472C117.816 9.29495 118.316 9.03009 118.953 9.03009C119.995 9.03009 120.632 9.84248 120.632 11.1333V14.0699V14.0699ZM126.568 11.8651H123.284C123.304 12.8 123.922 13.3276 124.835 13.3276C125.321 13.3276 125.768 13.246 126.163 13.0942L126.333 13.8563C125.867 14.0594 125.319 14.1609 124.681 14.1609C123.14 14.1609 122.229 13.1852 122.229 11.6725C122.229 10.1586 123.162 9.02066 124.558 9.02066C125.816 9.02066 126.605 9.95555 126.605 11.3678C126.613 11.5345 126.6 11.7014 126.568 11.8651V11.8651ZM125.564 11.0831C125.564 10.3209 125.181 9.78281 124.481 9.78281C123.853 9.78281 123.356 10.3314 123.285 11.0831H125.564V11.0831Z" fill="white"/>
</svg>
