<svg width="212" height="48" viewBox="0 0 212 48" fill="none" xmlns="http://www.w3.org/2000/svg">
<path d="M47.945 21.65V25.55C47.945 32.3533 45.8217 37.7917 41.575 41.865C37.3717 45.895 32.02 47.91 25.52 47.91C18.4567 47.91 12.585 45.635 7.905 41.085C3.26833 36.535 0.95 30.945 0.95 24.315C0.95 17.685 3.24667 12.0733 7.84 7.48C12.4767 2.88666 18.1317 0.589997 24.805 0.589997C29.0517 0.589997 32.93 1.54333 36.44 3.45C39.9933 5.35666 42.745 7.87 44.695 10.99L35.855 16.06C34.8583 14.5 33.3633 13.2217 31.37 12.225C29.42 11.2283 27.21 10.73 24.74 10.73C20.8833 10.73 17.6767 12.0083 15.12 14.565C12.6067 17.1217 11.35 20.3933 11.35 24.38C11.35 28.3233 12.65 31.5517 15.25 34.065C17.85 36.535 21.3167 37.77 25.65 37.77C31.6733 37.77 35.5517 35.43 37.285 30.75H25.13V21.65H47.945ZM77.0782 14.5H86.8282V47H77.0782V43.945C74.7815 46.5883 71.5532 47.91 67.3932 47.91C63.1032 47.91 59.4415 46.2633 56.4082 42.97C53.3749 39.6333 51.8582 35.56 51.8582 30.75C51.8582 25.94 53.3749 21.8883 56.4082 18.595C59.4415 15.2583 63.1032 13.59 67.3932 13.59C71.5532 13.59 74.7815 14.9117 77.0782 17.555V14.5ZM63.7532 36.535C65.1832 37.965 67.0465 38.68 69.3432 38.68C71.6399 38.68 73.5032 37.965 74.9332 36.535C76.3632 35.105 77.0782 33.1767 77.0782 30.75C77.0782 28.3233 76.3632 26.395 74.9332 24.965C73.5032 23.535 71.6399 22.82 69.3432 22.82C67.0465 22.82 65.1832 23.535 63.7532 24.965C62.3232 26.395 61.6082 28.3233 61.6082 30.75C61.6082 33.1767 62.3232 35.105 63.7532 36.535ZM130.381 13.59C134.108 13.59 137.098 14.825 139.351 17.295C141.605 19.7217 142.731 22.9717 142.731 27.045V47H132.981V27.89C132.981 26.2433 132.57 24.9433 131.746 23.99C130.966 23.0367 129.818 22.56 128.301 22.56C126.698 22.56 125.441 23.1017 124.531 24.185C123.665 25.2683 123.231 26.7633 123.231 28.67V47H113.481V27.89C113.481 26.2433 113.07 24.9433 112.246 23.99C111.466 23.0367 110.318 22.56 108.801 22.56C107.198 22.56 105.941 23.1017 105.031 24.185C104.165 25.2683 103.731 26.7633 103.731 28.67V47H93.9813V14.5H103.731V17.49C105.508 14.89 108.411 13.59 112.441 13.59C116.211 13.59 119.05 15.02 120.956 17.88C122.95 15.02 126.091 13.59 130.381 13.59ZM158.106 34.65C159.233 37.6833 161.833 39.2 165.906 39.2C168.55 39.2 170.63 38.3767 172.146 36.73L179.946 41.215C176.74 45.6783 172.016 47.91 165.776 47.91C160.316 47.91 155.94 46.285 152.646 43.035C149.396 39.785 147.771 35.69 147.771 30.75C147.771 25.8533 149.375 21.78 152.581 18.53C155.831 15.2367 159.991 13.59 165.061 13.59C169.785 13.59 173.706 15.2367 176.826 18.53C179.99 21.78 181.571 25.8533 181.571 30.75C181.571 32.1367 181.441 33.4367 181.181 34.65H158.106ZM157.911 27.37H171.886C170.933 23.9467 168.636 22.235 164.996 22.235C161.226 22.235 158.865 23.9467 157.911 27.37ZM195.062 23.99C195.062 24.64 195.604 25.1817 196.687 25.615C197.814 26.005 199.157 26.4167 200.717 26.85C202.277 27.24 203.837 27.76 205.397 28.41C206.957 29.06 208.279 30.1433 209.362 31.66C210.489 33.1333 211.052 34.9967 211.052 37.25C211.052 40.76 209.752 43.425 207.152 45.245C204.552 47.0217 201.345 47.91 197.532 47.91C190.685 47.91 186.027 45.3317 183.557 40.175L192.007 35.365C192.874 37.9217 194.715 39.2 197.532 39.2C199.872 39.2 201.042 38.5283 201.042 37.185C201.042 36.535 200.479 35.9933 199.352 35.56C198.269 35.1267 196.947 34.715 195.387 34.325C193.827 33.8917 192.267 33.35 190.707 32.7C189.147 32.0067 187.804 30.945 186.677 29.515C185.594 28.085 185.052 26.33 185.052 24.25C185.052 20.87 186.265 18.2483 188.692 16.385C191.162 14.5217 194.195 13.59 197.792 13.59C200.479 13.59 202.927 14.1967 205.137 15.41C207.347 16.58 209.124 18.2917 210.467 20.545L202.147 25.03C201.107 23.1233 199.655 22.17 197.792 22.17C195.972 22.17 195.062 22.7767 195.062 23.99Z" fill="white"/>
</svg>
