<svg width="156" height="36" viewBox="0 0 156 36" fill="none" xmlns="http://www.w3.org/2000/svg">
<path d="M35.096 16.952V19.544C35.096 24.344 33.56 28.232 30.488 31.208C27.416 34.184 23.448 35.672 18.584 35.672C13.4 35.672 9.096 33.992 5.672 30.632C2.28 27.24 0.584 23.112 0.584 18.248C0.584 13.352 2.264 9.208 5.624 5.816C9.016 2.424 13.208 0.727998 18.2 0.727998C21.336 0.727998 24.2 1.448 26.792 2.888C29.384 4.296 31.4 6.184 32.84 8.552L27.176 11.816C26.376 10.44 25.16 9.32 23.528 8.456C21.928 7.592 20.136 7.16 18.152 7.16C14.952 7.16 12.312 8.216 10.232 10.328C8.184 12.408 7.16 15.048 7.16 18.248C7.16 21.416 8.2 24.04 10.28 26.12C12.392 28.168 15.176 29.192 18.632 29.192C21.192 29.192 23.304 28.632 24.968 27.512C26.664 26.36 27.816 24.792 28.424 22.808H18.248V16.952H35.096ZM57.7595 11H63.9515V35H57.7595V32.168C55.9035 34.504 53.2955 35.672 49.9355 35.672C46.7355 35.672 43.9835 34.456 41.6795 32.024C39.4075 29.56 38.2715 26.552 38.2715 23C38.2715 19.448 39.4075 16.456 41.6795 14.024C43.9835 11.56 46.7355 10.328 49.9355 10.328C53.2955 10.328 55.9035 11.496 57.7595 13.832V11ZM46.3355 27.896C47.5835 29.144 49.1675 29.768 51.0875 29.768C53.0075 29.768 54.5915 29.144 55.8395 27.896C57.1195 26.616 57.7595 24.984 57.7595 23C57.7595 21.016 57.1195 19.4 55.8395 18.152C54.5915 16.872 53.0075 16.232 51.0875 16.232C49.1675 16.232 47.5835 16.872 46.3355 18.152C45.0875 19.4 44.4635 21.016 44.4635 23C44.4635 24.984 45.0875 26.616 46.3355 27.896ZM96.1104 10.328C98.8624 10.328 101.054 11.224 102.686 13.016C104.35 14.808 105.182 17.208 105.182 20.216V35H98.9904V20.648C98.9904 19.208 98.6384 18.088 97.9344 17.288C97.2304 16.488 96.2384 16.088 94.9584 16.088C93.5504 16.088 92.4464 16.552 91.6464 17.48C90.8784 18.408 90.4944 19.752 90.4944 21.512V35H84.3024V20.648C84.3024 19.208 83.9504 18.088 83.2464 17.288C82.5424 16.488 81.5504 16.088 80.2704 16.088C78.8944 16.088 77.7904 16.552 76.9584 17.48C76.1584 18.408 75.7584 19.752 75.7584 21.512V35H69.5664V11H75.7584V13.544C77.1984 11.4 79.4224 10.328 82.4304 10.328C85.3744 10.328 87.5504 11.48 88.9584 13.784C90.5584 11.48 92.9424 10.328 96.1104 10.328ZM115.673 25.544C116.505 28.552 118.761 30.056 122.441 30.056C124.809 30.056 126.601 29.256 127.817 27.656L132.809 30.536C130.441 33.96 126.953 35.672 122.345 35.672C118.377 35.672 115.193 34.472 112.793 32.072C110.393 29.672 109.193 26.648 109.193 23C109.193 19.384 110.377 16.376 112.745 13.976C115.113 11.544 118.153 10.328 121.865 10.328C125.385 10.328 128.281 11.544 130.553 13.976C132.857 16.408 134.009 19.416 134.009 23C134.009 23.8 133.929 24.648 133.769 25.544H115.673ZM115.577 20.744H127.817C127.465 19.112 126.729 17.896 125.609 17.096C124.521 16.296 123.273 15.896 121.865 15.896C120.201 15.896 118.825 16.328 117.737 17.192C116.649 18.024 115.929 19.208 115.577 20.744ZM143.107 17.816C143.107 18.456 143.523 18.984 144.355 19.4C145.219 19.784 146.259 20.136 147.475 20.456C148.691 20.744 149.907 21.128 151.123 21.608C152.339 22.056 153.363 22.824 154.195 23.912C155.059 25 155.491 26.36 155.491 27.992C155.491 30.456 154.563 32.36 152.707 33.704C150.883 35.016 148.595 35.672 145.843 35.672C140.915 35.672 137.555 33.768 135.763 29.96L141.139 26.936C141.843 29.016 143.411 30.056 145.843 30.056C148.051 30.056 149.155 29.368 149.155 27.992C149.155 27.352 148.723 26.84 147.859 26.456C147.027 26.04 146.003 25.672 144.787 25.352C143.571 25.032 142.355 24.632 141.139 24.152C139.923 23.672 138.883 22.92 138.019 21.896C137.187 20.84 136.771 19.528 136.771 17.96C136.771 15.592 137.635 13.736 139.363 12.392C141.123 11.016 143.299 10.328 145.891 10.328C147.843 10.328 149.619 10.776 151.219 11.672C152.819 12.536 154.083 13.784 155.011 15.416L149.731 18.296C148.963 16.664 147.683 15.848 145.891 15.848C145.091 15.848 144.419 16.024 143.875 16.376C143.363 16.728 143.107 17.208 143.107 17.816Z" fill="white"/>
</svg>
