<svg width="110" height="26" viewBox="0 0 110 26" fill="none" xmlns="http://www.w3.org/2000/svg">
<path d="M35.5575 4.04426C35.5575 4.78226 35.3673 5.42801 34.892 5.88926C34.3215 6.44277 33.656 6.71952 32.8003 6.71952C31.9447 6.71952 31.2792 6.44277 30.7087 5.88926C30.1383 5.33576 29.8531 4.69001 29.8531 3.85976C29.8531 3.02951 30.1383 2.38375 30.7087 1.83025C31.2792 1.27675 31.9447 1 32.8003 1C33.1806 1 33.5609 1.09225 33.9412 1.27675C34.3215 1.46125 34.6067 1.64575 34.7969 1.9225L34.3215 2.38375C33.9412 1.9225 33.4658 1.738 32.8003 1.738C32.2299 1.738 31.6595 1.9225 31.2792 2.38375C30.8038 2.75275 30.6136 3.30626 30.6136 3.95201C30.6136 4.59776 30.8038 5.15126 31.2792 5.52026C31.7545 5.88926 32.2299 6.16601 32.8003 6.16601C33.4658 6.16601 33.9412 5.98151 34.4166 5.52026C34.7018 5.24351 34.892 4.87451 34.892 4.41326H32.8003V3.67526H35.5575V4.04426V4.04426ZM39.9308 1.738H37.3639V3.49076H39.7407V4.13651H37.3639V5.88926H39.9308V6.62727H36.6033V1.09225H39.9308V1.738ZM43.0683 6.62727H42.3077V1.738H40.6914V1.09225H44.6845V1.738H43.0683V6.62727ZM47.4416 6.62727V1.09225H48.2022V6.62727H47.4416ZM51.4347 6.62727H50.6741V1.738H49.0579V1.09225H52.9559V1.738H51.3397V6.62727H51.4347ZM60.4667 5.88926C59.8963 6.44277 59.2308 6.71952 58.3751 6.71952C57.5194 6.71952 56.8539 6.44277 56.2835 5.88926C55.713 5.33576 55.4278 4.69001 55.4278 3.85976C55.4278 3.02951 55.713 2.38375 56.2835 1.83025C56.8539 1.27675 57.5194 1 58.3751 1C59.2308 1 59.8963 1.27675 60.4667 1.83025C61.0372 2.38375 61.3224 3.02951 61.3224 3.85976C61.3224 4.69001 61.0372 5.33576 60.4667 5.88926ZM56.8539 5.42801C57.2342 5.79701 57.8047 6.07376 58.3751 6.07376C58.9455 6.07376 59.516 5.88926 59.8963 5.42801C60.2766 5.05901 60.5618 4.50551 60.5618 3.85976C60.5618 3.21401 60.3716 2.6605 59.8963 2.2915C59.516 1.9225 58.9455 1.64575 58.3751 1.64575C57.8047 1.64575 57.2342 1.83025 56.8539 2.2915C56.4736 2.6605 56.1884 3.21401 56.1884 3.85976C56.1884 4.50551 56.3786 5.05901 56.8539 5.42801ZM62.3682 6.62727V1.09225H63.2238L65.981 5.42801V1.09225H66.7416V6.62727H65.981L63.0337 2.107V6.62727H62.3682V6.62727Z" fill="black" stroke="black" stroke-width="0.2" stroke-miterlimit="10"/>
<path d="M55.2377 14.7454C52.9559 14.7454 51.1495 16.4059 51.1495 18.7122C51.1495 20.9262 52.9559 22.679 55.2377 22.679C57.5194 22.679 59.3258 21.0184 59.3258 18.7122C59.3258 16.3137 57.5194 14.7454 55.2377 14.7454ZM55.2377 21.0184C54.0017 21.0184 52.9559 20.0037 52.9559 18.6199C52.9559 17.2362 54.0017 16.2214 55.2377 16.2214C56.4736 16.2214 57.5194 17.1439 57.5194 18.6199C57.5194 20.0037 56.4736 21.0184 55.2377 21.0184ZM46.3958 14.7454C44.1141 14.7454 42.3077 16.4059 42.3077 18.7122C42.3077 20.9262 44.1141 22.679 46.3958 22.679C48.6776 22.679 50.484 21.0184 50.484 18.7122C50.484 16.3137 48.6776 14.7454 46.3958 14.7454ZM46.3958 21.0184C45.1599 21.0184 44.1141 20.0037 44.1141 18.6199C44.1141 17.2362 45.1599 16.2214 46.3958 16.2214C47.6318 16.2214 48.6776 17.1439 48.6776 18.6199C48.6776 20.0037 47.6318 21.0184 46.3958 21.0184ZM35.8427 15.9447V17.6052H39.9308C39.8358 18.5277 39.4555 19.2657 38.9801 19.7269C38.4097 20.2804 37.4589 20.9262 35.8427 20.9262C33.2757 20.9262 31.3742 18.9889 31.3742 16.4982C31.3742 14.0074 33.3708 12.0702 35.8427 12.0702C37.1737 12.0702 38.2195 12.6237 38.9801 13.2694L40.2161 12.0702C39.1703 11.1477 37.8392 10.4097 35.9378 10.4097C32.5151 10.4097 29.5678 13.1772 29.5678 16.4982C29.5678 19.8192 32.5151 22.5867 35.9378 22.5867C37.8392 22.5867 39.1703 22.0332 40.3111 20.8339C41.452 19.7269 41.8323 18.1587 41.8323 16.9594C41.8323 16.5904 41.8323 16.2214 41.7372 15.9447H35.8427V15.9447ZM79.006 17.2362C78.6257 16.3137 77.675 14.7454 75.5834 14.7454C73.4918 14.7454 71.7805 16.3137 71.7805 18.7122C71.7805 20.9262 73.4918 22.679 75.7735 22.679C77.5799 22.679 78.7208 21.5719 79.1011 20.9262L77.7701 20.0037C77.2947 20.6494 76.7243 21.1107 75.7735 21.1107C74.8228 21.1107 74.2524 20.7417 73.777 19.9114L79.1962 17.6974L79.006 17.2362V17.2362ZM73.4918 18.5277C73.4918 17.0517 74.7277 16.2214 75.5834 16.2214C76.2489 16.2214 76.9144 16.5904 77.1046 17.0517L73.4918 18.5277ZM69.0233 22.31H70.8297V10.7787H69.0233V22.31ZM66.1711 15.5757C65.6958 15.1144 64.9352 14.6532 63.9844 14.6532C61.9879 14.6532 60.0864 16.4059 60.0864 18.6199C60.0864 20.8339 61.8928 22.4945 63.9844 22.4945C64.9352 22.4945 65.6958 22.0332 66.076 21.572H66.1711V22.1255C66.1711 23.6015 65.3155 24.4317 63.9844 24.4317C62.9386 24.4317 62.178 23.6937 61.9879 23.048L60.4667 23.6937C60.9421 24.7085 62.083 26 64.0795 26C66.1711 26 67.8824 24.8007 67.8824 21.941V14.9299H66.1711V15.5757V15.5757ZM64.0795 21.0184C62.8436 21.0184 61.7977 20.0037 61.7977 18.6199C61.7977 17.2362 62.8436 16.2214 64.0795 16.2214C65.3155 16.2214 66.2662 17.2362 66.2662 18.6199C66.2662 20.0037 65.3155 21.0184 64.0795 21.0184ZM87.2774 10.7787H82.9991V22.31H84.8055V17.9742H87.2774C89.274 17.9742 91.1754 16.5904 91.1754 14.3764C91.1754 12.1624 89.274 10.7787 87.2774 10.7787V10.7787ZM87.3725 16.3137H84.8055V12.3469H87.3725C88.7035 12.3469 89.4641 13.4539 89.4641 14.2842C89.369 15.2989 88.6085 16.3137 87.3725 16.3137ZM98.306 14.6532C96.9749 14.6532 95.6439 15.2067 95.1685 16.4059L96.7848 17.0517C97.1651 16.4059 97.7355 16.2214 98.401 16.2214C99.3518 16.2214 100.207 16.7749 100.302 17.6974V17.7897C100.017 17.6052 99.2567 17.3284 98.4961 17.3284C96.7848 17.3284 95.0735 18.2509 95.0735 19.9114C95.0735 21.4797 96.4996 22.4945 98.0207 22.4945C99.2567 22.4945 99.8271 21.941 100.302 21.3874H100.398V22.31H102.109V17.8819C101.919 15.8524 100.302 14.6532 98.306 14.6532V14.6532ZM98.1158 21.0184C97.5454 21.0184 96.6897 20.7417 96.6897 20.0037C96.6897 19.0812 97.7355 18.8044 98.5912 18.8044C99.3518 18.8044 99.7321 18.9889 100.207 19.1734C100.017 20.2804 99.0665 21.0184 98.1158 21.0184V21.0184ZM108.099 14.9299L106.102 19.9114H106.007L103.915 14.9299H102.014L105.151 21.941L103.345 25.8155H105.151L110 14.9299H108.099V14.9299ZM92.1262 22.31H93.9326V10.7787H92.1262V22.31Z" fill="black"/>
<path d="M0.380294 1.55371C0.0950731 1.83046 0 2.29171 0 2.84521V23.2325C0 23.786 0.190147 24.2473 0.475367 24.524L0.570441 24.6163L12.3596 13.1772V12.9927L0.380294 1.55371Z" fill="url(#paint0_linear_1422_27)"/>
<path d="M16.1625 17.0517L12.2645 13.2695V12.9927L16.1625 9.21045L16.2576 9.3027L20.9162 11.8857C22.2472 12.6237 22.2472 13.823 20.9162 14.561L16.1625 17.0517V17.0517Z" fill="url(#paint1_linear_1422_27)"/>
<path d="M16.2575 16.96L12.2645 13.0854L0.38028 24.6167C0.855647 25.078 1.52116 25.078 2.37682 24.709L16.2575 16.96" fill="url(#paint2_linear_1422_27)"/>
<path d="M16.2575 9.21051L2.37682 1.55374C1.52116 1.09249 0.855647 1.18474 0.38028 1.64599L12.2645 13.085L16.2575 9.21051V9.21051Z" fill="url(#paint3_linear_1422_27)"/>
<path opacity="0.2" d="M16.1625 16.8672L2.37682 24.4317C1.61623 24.893 0.950721 24.8007 0.475353 24.4317L0.38028 24.524L0.475353 24.6162C0.950721 24.9852 1.61623 25.0775 2.37682 24.6162L16.1625 16.8672Z" fill="black"/>
<path opacity="0.12" d="M0.380293 24.4322C0.0950731 24.1555 0 23.6942 0 23.1407V23.233C0 23.7865 0.190147 24.2477 0.475367 24.5245V24.4322H0.380293ZM20.9162 14.2847L16.1625 16.8677L16.2576 16.96L20.9162 14.377C21.5817 14.008 21.8669 13.5467 21.8669 13.0854C21.8669 13.5467 21.4866 13.9157 20.9162 14.2847V14.2847Z" fill="black"/>
<path opacity="0.25" d="M2.37684 1.64623L20.9162 11.886C21.4866 12.255 21.8669 12.624 21.8669 13.0853C21.8669 12.624 21.5817 12.1628 20.9162 11.7938L2.37684 1.55398C1.04581 0.815981 0 1.36948 0 2.84549V2.93774C0 1.55398 1.04581 0.908231 2.37684 1.64623Z" fill="white"/>
<defs>
<linearGradient id="paint0_linear_1422_27" x1="11.2187" y1="2.66994" x2="-4.25669" y2="18.618" gradientUnits="userSpaceOnUse">
<stop stop-color="#00A0FF"/>
<stop offset="0.007" stop-color="#00A1FF"/>
<stop offset="0.26" stop-color="#00BEFF"/>
<stop offset="0.512" stop-color="#00D2FF"/>
<stop offset="0.76" stop-color="#00DFFF"/>
<stop offset="1" stop-color="#00E3FF"/>
</linearGradient>
<linearGradient id="paint1_linear_1422_27" x1="22.6598" y1="13.0859" x2="-0.345128" y2="13.0859" gradientUnits="userSpaceOnUse">
<stop stop-color="#FFE000"/>
<stop offset="0.409" stop-color="#FFBD00"/>
<stop offset="0.775" stop-color="#FFA500"/>
<stop offset="1" stop-color="#FF9C00"/>
</linearGradient>
<linearGradient id="paint2_linear_1422_27" x1="14.0965" y1="15.2035" x2="-6.88825" y2="36.8305" gradientUnits="userSpaceOnUse">
<stop stop-color="#FF3A44"/>
<stop offset="1" stop-color="#C31162"/>
</linearGradient>
<linearGradient id="paint3_linear_1422_27" x1="-2.56985" y1="-5.20267" x2="6.80129" y2="4.45526" gradientUnits="userSpaceOnUse">
<stop stop-color="#32A071"/>
<stop offset="0.069" stop-color="#2DA771"/>
<stop offset="0.476" stop-color="#15CF74"/>
<stop offset="0.801" stop-color="#06E775"/>
<stop offset="1" stop-color="#00F076"/>
</linearGradient>
</defs>
</svg>
