<svg width="71" height="71" viewBox="0 0 71 71" fill="none" xmlns="http://www.w3.org/2000/svg">
<path d="M55.4819 36.4299C55.5169 36.1214 55.4174 35.8119 55.2096 35.58C55.0018 35.3482 54.7065 35.2158 54.3947 35.2158H50.0197C49.5549 35.2158 49.1404 35.51 48.9872 35.9486L48.5771 37.1386C47.491 41.483 45.6152 44.1036 43.0176 47.7327L42.4554 48.5191C42.0452 49.0922 41.3802 49.4346 40.6747 49.4346H40.6463C41.6897 48.2719 42.3307 46.7418 42.3307 45.0596C42.3307 41.4404 39.3874 38.4971 35.7682 38.4971C32.149 38.4971 29.2057 41.4404 29.2057 45.0596C29.2057 46.7407 29.8466 48.2719 30.8901 49.4346C30.1868 49.4335 29.5229 49.0911 29.1149 48.5224L28.5483 47.7283C25.9518 44.1025 24.0771 41.4808 22.9637 37.0424L22.5808 35.9486C22.4277 35.51 22.0132 35.2158 21.5483 35.2158H17.1733C16.8616 35.2158 16.5652 35.3482 16.3585 35.58C16.1507 35.8119 16.0522 36.1214 16.0862 36.4299C16.633 41.3463 18.4093 46.0932 21.2235 50.1575L27.0171 58.5258V68.0283H29.2046V58.1846C29.2046 57.9625 29.1368 57.7449 29.0099 57.5622L23.0216 48.9129C20.646 45.4818 19.0677 41.5257 18.4224 37.4044H20.7751L20.8691 37.6691C22.0547 42.416 24.1351 45.3221 26.7688 49.0014L27.3332 49.7922C28.1546 50.9374 29.4857 51.6221 30.8955 51.6221H40.6747C42.0846 51.6221 43.4146 50.9374 44.236 49.7879L44.796 49.0047C47.4308 45.3243 49.5122 42.4171 50.6705 37.7643L50.7963 37.4033H53.1446C52.5004 41.5246 50.9221 45.4807 48.5454 48.9118L42.5571 57.5611C42.4313 57.7449 42.3635 57.9625 42.3635 58.1846V68.0283H44.551V58.5258L50.3446 50.1575C53.1599 46.0921 54.9362 41.3452 55.4819 36.4299ZM35.7693 40.6846C38.1821 40.6846 40.1443 42.6468 40.1443 45.0596C40.1443 47.4724 38.1821 49.4346 35.7693 49.4346C33.3565 49.4346 31.3943 47.4724 31.3943 45.0596C31.3943 42.6468 33.3565 40.6846 35.7693 40.6846Z" fill="url(#paint0_linear_865_116)"/>
<path d="M35.1907 30.6549C35.3756 30.7785 35.5888 30.8408 35.801 30.8408C36.0132 30.8408 36.2265 30.7785 36.4113 30.6549C38.834 29.0263 46.7385 23.2382 46.7385 17.1121C46.7385 14.1491 45.0279 11.9255 42.2738 11.3086C40.1651 10.8329 37.5106 11.4607 35.801 13.425C34.0915 11.4607 31.4392 10.8296 29.3282 11.3086C26.5742 11.9255 24.8635 14.1491 24.8635 17.1121C24.8635 23.2382 32.7681 29.0263 35.1907 30.6549ZM29.8062 13.4436C30.1048 13.3758 30.4198 13.3419 30.7413 13.3419C32.2868 13.3419 33.9876 14.1327 34.8123 15.8805C34.9927 16.2633 35.3777 16.5072 35.801 16.5072C36.2243 16.5072 36.6093 16.2622 36.7898 15.8805C37.7862 13.7663 40.0634 13.0521 41.7959 13.4425C42.6249 13.6296 44.551 14.358 44.551 17.1121C44.551 21.7889 38.1788 26.7349 35.801 28.4182C33.4232 26.7349 27.051 21.7889 27.051 17.1121C27.051 14.358 28.9771 13.6296 29.8062 13.4436Z" fill="url(#paint1_linear_865_116)"/>
<path d="M50.0198 17.7158H54.3948V19.9033H50.0198V17.7158Z" fill="url(#paint2_linear_865_116)"/>
<path d="M17.2073 17.7158H21.5823V19.9033H17.2073V17.7158Z" fill="url(#paint3_linear_865_116)"/>
<path d="M34.7073 2.40332H36.8948V6.77832H34.7073V2.40332Z" fill="url(#paint4_linear_865_116)"/>
<path d="M21.876 7.55365L23.4228 6.00685L26.5164 9.10045L24.9696 10.6472L21.876 7.55365Z" fill="url(#paint5_linear_865_116)"/>
<path d="M45.0747 9.09875L48.1683 6.00516L49.7151 7.55196L46.6215 10.6456L45.0747 9.09875Z" fill="url(#paint6_linear_865_116)"/>
<defs>
<linearGradient id="paint0_linear_865_116" x1="35.7842" y1="35.2158" x2="35.7842" y2="68.0283" gradientUnits="userSpaceOnUse">
<stop stop-color="#FF7657"/>
<stop offset="1" stop-color="#CF4C2E"/>
</linearGradient>
<linearGradient id="paint1_linear_865_116" x1="35.801" y1="11.1558" x2="35.801" y2="30.8408" gradientUnits="userSpaceOnUse">
<stop stop-color="#FF7657"/>
<stop offset="1" stop-color="#CF4C2E"/>
</linearGradient>
<linearGradient id="paint2_linear_865_116" x1="52.2073" y1="17.7158" x2="52.2073" y2="19.9033" gradientUnits="userSpaceOnUse">
<stop stop-color="#FF7657"/>
<stop offset="1" stop-color="#CF4C2E"/>
</linearGradient>
<linearGradient id="paint3_linear_865_116" x1="19.3948" y1="17.7158" x2="19.3948" y2="19.9033" gradientUnits="userSpaceOnUse">
<stop stop-color="#FF7657"/>
<stop offset="1" stop-color="#CF4C2E"/>
</linearGradient>
<linearGradient id="paint4_linear_865_116" x1="35.801" y1="2.40332" x2="35.801" y2="6.77832" gradientUnits="userSpaceOnUse">
<stop stop-color="#FF7657"/>
<stop offset="1" stop-color="#CF4C2E"/>
</linearGradient>
<linearGradient id="paint5_linear_865_116" x1="22.6494" y1="6.78025" x2="25.743" y2="9.87384" gradientUnits="userSpaceOnUse">
<stop stop-color="#FF7657"/>
<stop offset="1" stop-color="#CF4C2E"/>
</linearGradient>
<linearGradient id="paint6_linear_865_116" x1="46.6215" y1="7.55196" x2="48.1683" y2="9.09875" gradientUnits="userSpaceOnUse">
<stop stop-color="#FF7657"/>
<stop offset="1" stop-color="#CF4C2E"/>
</linearGradient>
</defs>
</svg>
