<svg width="19" height="19" viewBox="0 0 19 19" fill="none" xmlns="http://www.w3.org/2000/svg">
<g clip-path="url(#clip0_865_103)">
<path d="M11.4312 5.2251H7.56895C6.27655 5.2251 5.2251 6.27655 5.2251 7.56897V11.4312C5.2251 12.7237 6.27655 13.7751 7.56895 13.7751H11.4312C12.7237 13.7751 13.7751 12.7237 13.7751 11.4312V7.56897C13.7751 6.27655 12.7237 5.2251 11.4312 5.2251ZM13.2702 11.4312C13.2702 12.4452 12.4453 13.2702 11.4312 13.2702H7.56895C6.55496 13.2702 5.73002 12.4453 5.73002 11.4312V7.56897C5.73002 6.55496 6.55496 5.73002 7.56895 5.73002H11.4312C12.4453 5.73002 13.2702 6.55496 13.2702 7.56897V11.4312Z" fill="#FF7657"/>
<path d="M9.50012 7.15503C8.20703 7.15503 7.15503 8.20703 7.15503 9.50012C7.15503 10.7932 8.20701 11.8452 9.50012 11.8452C10.7932 11.8452 11.8452 10.7932 11.8452 9.5001C11.8452 8.20701 10.7932 7.15503 9.50012 7.15503ZM9.50012 11.3403C8.48544 11.3403 7.65993 10.5148 7.65993 9.5001C7.65993 8.48542 8.48544 7.65991 9.50012 7.65991C10.5148 7.65991 11.3403 8.48544 11.3403 9.50012C11.3403 10.5148 10.5148 11.3403 9.50012 11.3403Z" fill="#FF7657"/>
<path d="M11.9854 6.30225C11.5926 6.30225 11.2729 6.62189 11.2729 7.01475C11.2729 7.40762 11.5926 7.72724 11.9854 7.72724C12.3783 7.72724 12.6979 7.4076 12.6979 7.01474C12.6979 6.62187 12.3783 6.30225 11.9854 6.30225ZM11.9854 7.22231C11.871 7.22231 11.7779 7.12919 11.7779 7.01474C11.7779 6.90028 11.871 6.80716 11.9854 6.80716C12.0999 6.80716 12.193 6.9003 12.193 7.01474C12.193 7.12917 12.0999 7.22231 11.9854 7.22231Z" fill="#FF7657"/>
</g>
<circle cx="9.5" cy="9.5" r="9.15" stroke="#FF7657" stroke-width="0.7"/>
<defs>
<clipPath id="clip0_865_103">
<rect width="8.55" height="8.55" fill="white" transform="translate(5.2251 5.2251)"/>
</clipPath>
</defs>
</svg>
