<svg width="17" height="17" viewBox="0 0 17 17" fill="none" xmlns="http://www.w3.org/2000/svg">
<path d="M16.439 3.79259C16.3698 3.32981 16.1371 2.90714 15.783 2.6012C15.4289 2.29527 14.9769 2.12633 14.509 2.125H2.49107C2.02313 2.12633 1.57116 2.29527 1.21708 2.6012C0.863004 2.90714 0.630258 3.32981 0.561035 3.79259L8.50004 8.92978L16.439 3.79259Z" fill="#FF7657"/>
<path d="M8.78847 10.0087C8.70252 10.0642 8.60235 10.0938 8.5 10.0938C8.39765 10.0938 8.29748 10.0642 8.21153 10.0087L0.53125 5.03935V12.9151C0.531812 13.4347 0.738469 13.9329 1.10588 14.3003C1.47329 14.6677 1.97144 14.8743 2.49103 14.8749H14.509C15.0286 14.8743 15.5267 14.6677 15.8941 14.3003C16.2615 13.9329 16.4682 13.4347 16.4688 12.9151V5.03882L8.78847 10.0087Z" fill="#FF7657"/>
</svg>
