<svg width="17" height="17" viewBox="0 0 17 17" fill="none" xmlns="http://www.w3.org/2000/svg">
<g clip-path="url(#clip0_865_88)">
<path d="M8.5 0C6.80993 0.00224191 5.18973 0.674611 3.99467 1.86967C2.79961 3.06473 2.12724 4.68493 2.125 6.375C2.125 10.9517 8.06437 16.6839 8.31672 16.9256C8.3658 16.9733 8.43155 17 8.5 17C8.56845 17 8.6342 16.9733 8.68328 16.9256C8.93562 16.6839 14.875 10.9517 14.875 6.375C14.8728 4.68493 14.2004 3.06473 13.0053 1.86967C11.8103 0.674611 10.1901 0.00224191 8.5 0V0ZM8.5 9.29687C7.92211 9.29687 7.35719 9.12551 6.87669 8.80445C6.39619 8.48339 6.02169 8.02705 5.80054 7.49315C5.57939 6.95925 5.52153 6.37176 5.63427 5.80497C5.74701 5.23818 6.02529 4.71755 6.43392 4.30892C6.84255 3.90029 7.36318 3.62201 7.92997 3.50927C8.49676 3.39653 9.08425 3.45439 9.61815 3.67554C10.1521 3.89669 10.6084 4.27119 10.9295 4.75169C11.2505 5.23219 11.4219 5.79711 11.4219 6.375C11.4214 7.14979 11.1134 7.89271 10.5656 8.44056C10.0177 8.98842 9.27479 9.29641 8.5 9.29687Z" fill="#FF7657"/>
</g>
<defs>
<clipPath id="clip0_865_88">
<rect width="17" height="17" fill="white"/>
</clipPath>
</defs>
</svg>
