<svg width="17" height="17" viewBox="0 0 17 17" fill="none" xmlns="http://www.w3.org/2000/svg">
<g clip-path="url(#clip0_865_75)">
<path d="M14.542 7.13377C14.5625 4.73698 12.5211 2.53976 9.99153 2.23592C9.94122 2.22996 9.88642 2.22088 9.8284 2.21127C9.70317 2.19052 9.57366 2.16919 9.44299 2.16919C8.92455 2.16919 8.78596 2.53337 8.74948 2.75057C8.714 2.96175 8.74784 3.13909 8.84989 3.27789C9.02158 3.51134 9.32368 3.55279 9.56632 3.586C9.63744 3.59582 9.70454 3.60495 9.76071 3.61757C12.0334 4.1254 12.7987 4.92382 13.1727 7.17722C13.1818 7.23229 13.1859 7.30013 13.1903 7.37209C13.2066 7.64145 13.2406 8.20187 13.8431 8.20187H13.8432C13.8933 8.20187 13.9473 8.19754 14.0034 8.18898C14.5644 8.10372 14.5468 7.59145 14.5384 7.34532C14.536 7.276 14.5338 7.21043 14.5396 7.16682C14.5412 7.15584 14.542 7.1448 14.542 7.13377Z" fill="#FF7657"/>
<path d="M9.2958 1.3562C9.36312 1.36106 9.42684 1.3657 9.4799 1.37383C13.2119 1.94777 14.9282 3.71598 15.4039 7.4772C15.4119 7.54113 15.4132 7.61911 15.4145 7.70168C15.4193 7.99554 15.4291 8.60686 16.0856 8.61953L16.1059 8.61974C16.3118 8.61974 16.4756 8.55765 16.5928 8.43506C16.7971 8.22129 16.7829 7.90373 16.7714 7.64852C16.7686 7.5859 16.7659 7.52693 16.7666 7.4753C16.814 3.62855 13.4842 0.140329 9.64093 0.0106118C9.62498 0.0100838 9.60978 0.0109286 9.59441 0.0130932C9.58686 0.0142019 9.57287 0.0155745 9.5489 0.0155745C9.51057 0.0155745 9.46343 0.0122484 9.41343 0.00886956C9.35298 0.00475155 9.28445 0 9.21498 0C8.60292 0 8.48656 0.435031 8.47167 0.69436C8.43736 1.29369 9.01715 1.33587 9.2958 1.3562Z" fill="#FF7657"/>
<path d="M15.2239 12.3382C15.1445 12.2776 15.0625 12.2149 14.9857 12.153C14.5782 11.8251 14.1447 11.5229 13.7255 11.2305C13.6385 11.1699 13.5515 11.1093 13.4648 11.0485C12.9277 10.6712 12.4449 10.4879 11.9888 10.4879C11.3744 10.4879 10.8387 10.8274 10.3966 11.4968C10.2008 11.7936 9.96313 11.9378 9.67028 11.9378C9.49711 11.9378 9.30034 11.8884 9.08552 11.7909C7.3521 11.0049 6.11432 9.79965 5.4065 8.20877C5.06434 7.43987 5.17526 6.93726 5.77744 6.5282C6.11939 6.29612 6.75589 5.86404 6.7108 5.03664C6.65975 4.09705 4.58659 1.26992 3.7131 0.948825C3.34327 0.812825 2.9547 0.811558 2.5561 0.945657C1.55194 1.28323 0.831337 1.87606 0.472014 2.65996C0.124781 3.41741 0.140461 4.3068 0.517365 5.23198C1.60695 7.90689 3.13885 10.2391 5.07067 12.1636C6.96158 14.0475 9.28567 15.5907 11.9783 16.7502C12.221 16.8546 12.4756 16.9116 12.6615 16.9531C12.7248 16.9674 12.7795 16.9795 12.8194 16.9904C12.8413 16.9964 12.8639 16.9996 12.8866 16.9998L12.9078 16.9999C12.9079 16.9999 12.9078 16.9999 12.9079 16.9999C14.1744 16.9999 15.695 15.8427 16.1621 14.5233C16.5712 13.3681 15.8242 12.797 15.2239 12.3382Z" fill="#FF7657"/>
<path d="M9.85601 4.41184C9.63918 4.41733 9.18794 4.42852 9.02961 4.8881C8.95554 5.10287 8.96441 5.28934 9.05601 5.44234C9.19043 5.66683 9.44796 5.73562 9.68221 5.77337C10.5317 5.90969 10.968 6.37946 11.0553 7.25163C11.0959 7.65831 11.3697 7.9423 11.7213 7.9423H11.7214C11.7473 7.9423 11.7739 7.94076 11.8003 7.93754C12.2232 7.88723 12.4282 7.57653 12.4097 7.01416C12.4165 6.42724 12.1093 5.76091 11.5869 5.23016C11.0627 4.69778 10.4308 4.39795 9.85601 4.41184Z" fill="#FF7657"/>
</g>
<defs>
<clipPath id="clip0_865_75">
<rect width="17" height="17" fill="white"/>
</clipPath>
</defs>
</svg>
