<svg width="19" height="19" viewBox="0 0 19 19" fill="none" xmlns="http://www.w3.org/2000/svg">
<g clip-path="url(#clip0_865_97)">
<path d="M8.63635 7.34082V8.20447H7.77271V9.49992H8.63635V13.3863H10.3636V9.49992H11.5123L11.6591 8.20447H10.3636V7.44877C10.3636 7.09901 10.3982 6.91332 10.9379 6.91332H11.6591V5.61353H10.5018C9.12 5.61356 8.63635 6.26127 8.63635 7.34082Z" fill="#FF7657"/>
<path d="M9.5 0C4.25329 0 0 4.25329 0 9.5C0 14.7467 4.25329 19 9.5 19C14.7467 19 19 14.7467 19 9.5C19 4.25329 14.7467 0 9.5 0ZM9.5 18.1364C4.73026 18.1364 0.863647 14.2697 0.863647 9.5C0.863647 4.73026 4.73026 0.863647 9.5 0.863647C14.2697 0.863647 18.1364 4.73026 18.1364 9.5C18.1364 14.2697 14.2697 18.1364 9.5 18.1364Z" fill="#FF7657"/>
</g>
<defs>
<clipPath id="clip0_865_97">
<rect width="19" height="19" fill="white"/>
</clipPath>
</defs>
</svg>
