<svg width="19" height="19" viewBox="0 0 19 19" fill="none" xmlns="http://www.w3.org/2000/svg">
<g clip-path="url(#clip0_865_91)">
<path d="M14.0126 6.17494C13.664 6.3815 13.2829 6.52748 12.8855 6.60675C12.5478 6.25258 12.0794 6.05271 11.5901 6.05401C10.6261 6.04677 9.83618 6.81738 9.81963 7.78126C9.82004 7.91508 9.83596 8.04841 9.86713 8.17855C8.4474 8.11153 7.12145 7.45013 6.21394 6.3563C6.05871 6.61788 5.97529 6.9158 5.97213 7.21994C5.97217 7.80638 6.26975 8.35271 6.76238 8.67085C6.48105 8.66168 6.20585 8.58624 5.95918 8.4506C5.95918 8.4506 5.95918 8.4506 5.95918 8.4722C5.95636 9.31447 6.55286 10.0397 7.37988 10.1995C7.11919 10.269 6.84621 10.2793 6.58103 10.2297C6.81945 10.9432 7.48271 11.428 8.23488 11.4388C7.6087 11.9257 6.83879 12.1915 6.04557 12.1945C5.90126 12.1943 5.75705 12.1857 5.61377 12.1686C6.42639 12.6826 7.36834 12.9552 8.32992 12.9545C11.072 13.0046 13.3356 10.8222 13.3857 8.0801C13.3862 8.05105 13.3865 8.02199 13.3865 7.9929C13.3865 7.91805 13.3865 7.8432 13.3865 7.76835C13.725 7.52031 14.0173 7.21486 14.2502 6.86585C13.926 7.00779 13.5826 7.1009 13.2311 7.1422C13.6007 6.92582 13.8787 6.58185 14.0126 6.17494Z" fill="#FF7657"/>
<path d="M9.5 0C4.25329 0 0 4.25329 0 9.5C0 14.7467 4.25329 19 9.5 19C14.7467 19 19 14.7467 19 9.5C19 4.25329 14.7467 0 9.5 0ZM9.5 18.1364C4.73026 18.1364 0.863647 14.2697 0.863647 9.5C0.863647 4.73026 4.73026 0.863647 9.5 0.863647C14.2697 0.863647 18.1364 4.73026 18.1364 9.5C18.1364 14.2697 14.2697 18.1364 9.5 18.1364Z" fill="#FF7657"/>
</g>
<defs>
<clipPath id="clip0_865_91">
<rect width="19" height="19" fill="white"/>
</clipPath>
</defs>
</svg>
