<svg width="137" height="43" viewBox="0 0 137 43" fill="none" xmlns="http://www.w3.org/2000/svg">
<path d="M131 41.5H6C3.2 41.5 1 39.3 1 36.5V6.5C1 3.7 3.2 1.5 6 1.5H131C133.8 1.5 136 3.7 136 6.5V36.5C136 39.3 133.8 41.5 131 41.5Z" fill="black"/>
<path d="M48.4 11.6999C48.4 12.4999 48.2 13.1999 47.7 13.6999C47.1 14.2999 46.4 14.5999 45.5 14.5999C44.6 14.5999 43.9 14.2999 43.3 13.6999C42.7 13.0999 42.4 12.3999 42.4 11.4999C42.4 10.5999 42.7 9.8999 43.3 9.2999C43.9 8.6999 44.6 8.3999 45.5 8.3999C45.9 8.3999 46.3 8.4999 46.7 8.6999C47.1 8.8999 47.4 9.0999 47.6 9.3999L47.1 9.8999C46.7 9.3999 46.2 9.1999 45.5 9.1999C44.9 9.1999 44.3 9.3999 43.9 9.8999C43.4 10.2999 43.2 10.8999 43.2 11.5999C43.2 12.2999 43.4 12.8999 43.9 13.2999C44.4 13.6999 44.9 13.9999 45.5 13.9999C46.2 13.9999 46.7 13.7999 47.2 13.2999C47.5 12.9999 47.7 12.5999 47.7 12.0999H45.5V11.2999H48.4V11.6999V11.6999ZM53 9.1999H50.3V11.0999H52.8V11.7999H50.3V13.6999H53V14.4999H49.5V8.4999H53V9.1999ZM56.3 14.4999H55.5V9.1999H53.8V8.4999H58V9.1999H56.3V14.4999ZM60.9 14.4999V8.4999H61.7V14.4999H60.9ZM65.1 14.4999H64.3V9.1999H62.6V8.4999H66.7V9.1999H65V14.4999H65.1ZM74.6 13.6999C74 14.2999 73.3 14.5999 72.4 14.5999C71.5 14.5999 70.8 14.2999 70.2 13.6999C69.6 13.0999 69.3 12.3999 69.3 11.4999C69.3 10.5999 69.6 9.8999 70.2 9.2999C70.8 8.6999 71.5 8.3999 72.4 8.3999C73.3 8.3999 74 8.6999 74.6 9.2999C75.2 9.8999 75.5 10.5999 75.5 11.4999C75.5 12.3999 75.2 13.0999 74.6 13.6999ZM70.8 13.1999C71.2 13.5999 71.8 13.8999 72.4 13.8999C73 13.8999 73.6 13.6999 74 13.1999C74.4 12.7999 74.7 12.1999 74.7 11.4999C74.7 10.7999 74.5 10.1999 74 9.7999C73.6 9.3999 73 9.0999 72.4 9.0999C71.8 9.0999 71.2 9.2999 70.8 9.7999C70.4 10.1999 70.1 10.7999 70.1 11.4999C70.1 12.1999 70.3 12.7999 70.8 13.1999ZM76.6 14.4999V8.4999H77.5L80.4 13.1999V8.4999H81.2V14.4999H80.4L77.3 9.5999V14.4999H76.6V14.4999Z" fill="white" stroke="white" stroke-width="0.2" stroke-miterlimit="10"/>
<path d="M69.1 23.3001C66.7 23.3001 64.8 25.1001 64.8 27.6001C64.8 30.0001 66.7 31.9001 69.1 31.9001C71.5 31.9001 73.4 30.1001 73.4 27.6001C73.4 25.0001 71.5 23.3001 69.1 23.3001ZM69.1 30.1001C67.8 30.1001 66.7 29.0001 66.7 27.5001C66.7 26.0001 67.8 24.9001 69.1 24.9001C70.4 24.9001 71.5 25.9001 71.5 27.5001C71.5 29.0001 70.4 30.1001 69.1 30.1001ZM59.8 23.3001C57.4 23.3001 55.5 25.1001 55.5 27.6001C55.5 30.0001 57.4 31.9001 59.8 31.9001C62.2 31.9001 64.1 30.1001 64.1 27.6001C64.1 25.0001 62.2 23.3001 59.8 23.3001ZM59.8 30.1001C58.5 30.1001 57.4 29.0001 57.4 27.5001C57.4 26.0001 58.5 24.9001 59.8 24.9001C61.1 24.9001 62.2 25.9001 62.2 27.5001C62.2 29.0001 61.1 30.1001 59.8 30.1001ZM48.7 24.6001V26.4001H53C52.9 27.4001 52.5 28.2001 52 28.7001C51.4 29.3001 50.4 30.0001 48.7 30.0001C46 30.0001 44 27.9001 44 25.2001C44 22.5001 46.1 20.4001 48.7 20.4001C50.1 20.4001 51.2 21.0001 52 21.7001L53.3 20.4001C52.2 19.4001 50.8 18.6001 48.8 18.6001C45.2 18.6001 42.1 21.6001 42.1 25.2001C42.1 28.8001 45.2 31.8001 48.8 31.8001C50.8 31.8001 52.2 31.2001 53.4 29.9001C54.6 28.7001 55 27.0001 55 25.7001C55 25.3001 55 24.9001 54.9 24.6001H48.7V24.6001ZM94.1 26.0001C93.7 25.0001 92.7 23.3001 90.5 23.3001C88.3 23.3001 86.5 25.0001 86.5 27.6001C86.5 30.0001 88.3 31.9001 90.7 31.9001C92.6 31.9001 93.8 30.7001 94.2 30.0001L92.8 29.0001C92.3 29.7001 91.7 30.2001 90.7 30.2001C89.7 30.2001 89.1 29.8001 88.6 28.9001L94.3 26.5001L94.1 26.0001V26.0001ZM88.3 27.4001C88.3 25.8001 89.6 24.9001 90.5 24.9001C91.2 24.9001 91.9 25.3001 92.1 25.8001L88.3 27.4001ZM83.6 31.5001H85.5V19.0001H83.6V31.5001ZM80.6 24.2001C80.1 23.7001 79.3 23.2001 78.3 23.2001C76.2 23.2001 74.2 25.1001 74.2 27.5001C74.2 29.9001 76.1 31.7001 78.3 31.7001C79.3 31.7001 80.1 31.2001 80.5 30.7001H80.6V31.3001C80.6 32.9001 79.7 33.8001 78.3 33.8001C77.2 33.8001 76.4 33.0001 76.2 32.3001L74.6 33.0001C75.1 34.1001 76.3 35.5001 78.4 35.5001C80.6 35.5001 82.4 34.2001 82.4 31.1001V23.5001H80.6V24.2001V24.2001ZM78.4 30.1001C77.1 30.1001 76 29.0001 76 27.5001C76 26.0001 77.1 24.9001 78.4 24.9001C79.7 24.9001 80.7 26.0001 80.7 27.5001C80.7 29.0001 79.7 30.1001 78.4 30.1001ZM102.8 19.0001H98.3V31.5001H100.2V26.8001H102.8C104.9 26.8001 106.9 25.3001 106.9 22.9001C106.9 20.5001 104.9 19.0001 102.8 19.0001V19.0001ZM102.9 25.0001H100.2V20.7001H102.9C104.3 20.7001 105.1 21.9001 105.1 22.8001C105 23.9001 104.2 25.0001 102.9 25.0001ZM114.4 23.2001C113 23.2001 111.6 23.8001 111.1 25.1001L112.8 25.8001C113.2 25.1001 113.8 24.9001 114.5 24.9001C115.5 24.9001 116.4 25.5001 116.5 26.5001V26.6001C116.2 26.4001 115.4 26.1001 114.6 26.1001C112.8 26.1001 111 27.1001 111 28.9001C111 30.6001 112.5 31.7001 114.1 31.7001C115.4 31.7001 116 31.1001 116.5 30.5001H116.6V31.5001H118.4V26.7001C118.2 24.5001 116.5 23.2001 114.4 23.2001V23.2001ZM114.2 30.1001C113.6 30.1001 112.7 29.8001 112.7 29.0001C112.7 28.0001 113.8 27.7001 114.7 27.7001C115.5 27.7001 115.9 27.9001 116.4 28.1001C116.2 29.3001 115.2 30.1001 114.2 30.1001V30.1001ZM124.7 23.5001L122.6 28.9001H122.5L120.3 23.5001H118.3L121.6 31.1001L119.7 35.3001H121.6L126.7 23.5001H124.7V23.5001ZM107.9 31.5001H109.8V19.0001H107.9V31.5001Z" fill="white"/>
<path d="M11.4 9C11.1 9.3 11 9.8 11 10.4V32.5C11 33.1 11.2 33.6 11.5 33.9L11.6 34L24 21.6V21.4L11.4 9Z" fill="url(#paint0_linear_1422_29)"/>
<path d="M28 25.7998L23.9 21.6998V21.3998L28 17.2998L28.1 17.3998L33 20.1998C34.4 20.9998 34.4 22.2998 33 23.0998L28 25.7998V25.7998Z" fill="url(#paint1_linear_1422_29)"/>
<path d="M28.1 25.7L23.9 21.5L11.4 34C11.9 34.5 12.6 34.5 13.5 34.1L28.1 25.7" fill="url(#paint2_linear_1422_29)"/>
<path d="M28.1 17.2996L13.5 8.99962C12.6 8.49962 11.9 8.59962 11.4 9.09962L23.9 21.4996L28.1 17.2996V17.2996Z" fill="url(#paint3_linear_1422_29)"/>
<path opacity="0.2" d="M28 25.5996L13.5 33.7996C12.7 34.2996 12 34.1996 11.5 33.7996L11.4 33.8996L11.5 33.9996C12 34.3996 12.7 34.4996 13.5 33.9996L28 25.5996Z" fill="black"/>
<path opacity="0.12" d="M11.4 33.8C11.1 33.5 11 33 11 32.4V32.5C11 33.1 11.2 33.6 11.5 33.9V33.8H11.4ZM33 22.8L28 25.6L28.1 25.7L33 22.9C33.7 22.5 34 22 34 21.5C34 22 33.6 22.4 33 22.8V22.8Z" fill="black"/>
<path opacity="0.25" d="M13.5 9.09978L33 20.1998C33.6 20.5998 34 20.9998 34 21.4998C34 20.9998 33.7 20.4998 33 20.0998L13.5 8.99978C12.1 8.19978 11 8.79978 11 10.3998V10.4998C11 8.99978 12.1 8.29978 13.5 9.09978Z" fill="white"/>
<defs>
<linearGradient id="paint0_linear_1422_29" x1="22.8" y1="10.21" x2="6.017" y2="26.992" gradientUnits="userSpaceOnUse">
<stop stop-color="#00A0FF"/>
<stop offset="0.007" stop-color="#00A1FF"/>
<stop offset="0.26" stop-color="#00BEFF"/>
<stop offset="0.512" stop-color="#00D2FF"/>
<stop offset="0.76" stop-color="#00DFFF"/>
<stop offset="1" stop-color="#00E3FF"/>
</linearGradient>
<linearGradient id="paint1_linear_1422_29" x1="34.834" y1="21.5008" x2="10.637" y2="21.5008" gradientUnits="userSpaceOnUse">
<stop stop-color="#FFE000"/>
<stop offset="0.409" stop-color="#FFBD00"/>
<stop offset="0.775" stop-color="#FFA500"/>
<stop offset="1" stop-color="#FF9C00"/>
</linearGradient>
<linearGradient id="paint2_linear_1422_29" x1="25.827" y1="23.796" x2="3.069" y2="46.554" gradientUnits="userSpaceOnUse">
<stop stop-color="#FF3A44"/>
<stop offset="1" stop-color="#C31162"/>
</linearGradient>
<linearGradient id="paint3_linear_1422_29" x1="8.29699" y1="1.67562" x2="18.46" y2="11.8386" gradientUnits="userSpaceOnUse">
<stop stop-color="#32A071"/>
<stop offset="0.069" stop-color="#2DA771"/>
<stop offset="0.476" stop-color="#15CF74"/>
<stop offset="0.801" stop-color="#06E775"/>
<stop offset="1" stop-color="#00F076"/>
</linearGradient>
</defs>
</svg>
