<svg width="71" height="71" viewBox="0 0 71 71" fill="none" xmlns="http://www.w3.org/2000/svg">
<path d="M35.801 66.9346C34.2698 66.9346 32.8342 66.333 31.7542 65.2529L26.8596 60.3584C26.1897 59.6885 25.301 59.3193 24.3577 59.3193H17.426C14.2678 59.3193 11.6975 56.749 11.6975 53.5908V46.6592C11.6975 45.7158 11.3284 44.8271 10.6584 44.1572L5.76392 39.2627C3.5354 37.0342 3.5354 33.3975 5.76392 31.1689L10.6584 26.2744C11.3284 25.6045 11.6975 24.7158 11.6975 23.7725V16.8408C11.6975 13.6826 14.2678 11.1123 17.426 11.1123H24.3577C25.301 11.1123 26.1897 10.7432 26.8596 10.0732L31.7542 5.17871C32.8342 4.09863 34.2698 3.49707 35.801 3.49707C37.3323 3.49707 38.7678 4.09863 39.8479 5.17871L44.7424 10.0732C45.4123 10.7432 46.301 11.1123 47.2444 11.1123H54.176C57.3342 11.1123 59.9045 13.6826 59.9045 16.8408V23.7725C59.9045 24.7158 60.2737 25.6045 60.9436 26.2744L65.8381 31.1689C68.0667 33.3975 68.0667 37.0342 65.8381 39.2627L60.9436 44.1572C60.2737 44.8271 59.9045 45.7158 59.9045 46.6592V53.5908C59.9045 56.749 57.3342 59.3193 54.176 59.3193H47.2444C46.301 59.3193 45.4123 59.6885 44.7424 60.3584L39.8479 65.2529C38.7678 66.333 37.3323 66.9346 35.801 66.9346ZM17.426 13.2998C15.4709 13.2998 13.885 14.8857 13.885 16.8408V23.7725C13.885 25.3037 13.2834 26.7393 12.2034 27.8193L7.30884 32.7139C5.92798 34.0947 5.92798 36.3369 7.30884 37.7178L12.2034 42.6123C13.2834 43.6924 13.885 45.1279 13.885 46.6592V53.5908C13.885 55.5459 15.4709 57.1318 17.426 57.1318H24.3577C25.8889 57.1318 27.3245 57.7334 28.4045 58.8135L33.2991 63.708C33.969 64.3779 34.8577 64.7471 35.801 64.7471C36.7444 64.7471 37.6331 64.3779 38.303 63.708L43.1975 58.8135C44.2776 57.7334 45.7131 57.1318 47.2444 57.1318H54.176C56.1311 57.1318 57.717 55.5459 57.717 53.5908V46.6592C57.717 45.1279 58.3186 43.6924 59.3987 42.6123L64.2932 37.7178C65.6741 36.3369 65.6741 34.0947 64.2932 32.7139L59.3987 27.8193C58.3186 26.7393 57.717 25.3037 57.717 23.7725V16.8408C57.717 14.8857 56.1311 13.2998 54.176 13.2998H47.2444C45.7131 13.2998 44.2776 12.6982 43.1975 11.6182L38.303 6.72363C37.6331 6.05371 36.7444 5.68457 35.801 5.68457C34.8577 5.68457 33.969 6.05371 33.2991 6.72363L28.4045 11.6182C27.3245 12.6982 25.8889 13.2998 24.3577 13.2998H17.426Z" fill="url(#paint0_linear_865_105)"/>
<path d="M35.801 55.1904C24.7815 55.1904 15.8264 46.2217 15.8264 35.2158C15.8264 24.21 24.7815 15.2412 35.801 15.2412C46.8206 15.2412 55.7756 24.1963 55.7756 35.2158C55.7756 46.2354 46.8206 55.1904 35.801 55.1904ZM35.801 17.4287C25.9846 17.4287 18.0139 25.4131 18.0139 35.2158C18.0139 45.0186 25.9846 53.0029 35.801 53.0029C45.6174 53.0029 53.5881 45.0186 53.5881 35.2158C53.5881 25.4131 45.6174 17.4287 35.801 17.4287Z" fill="url(#paint1_linear_865_105)"/>
<path d="M43.4574 46.1533H28.1449C27.6527 46.1533 27.2289 45.8252 27.0922 45.3604L22.7172 29.9521C22.5941 29.5146 22.7582 29.0361 23.1273 28.7627C23.4965 28.4893 24.0023 28.4756 24.3715 28.7354L29.9906 32.4814L34.8578 24.6885C35.0629 24.374 35.4047 24.1689 35.7875 24.1689C36.1703 24.1689 36.5121 24.3604 36.7172 24.6885L41.5843 32.4814L47.2035 28.7354C47.5863 28.4756 48.0785 28.4893 48.4476 28.7627C48.8168 29.0361 48.9808 29.501 48.8578 29.9521L44.4828 45.3604C44.3734 45.8252 43.9496 46.1533 43.4574 46.1533ZM28.9652 43.9658H42.6371L45.973 32.208L41.8851 34.9424C41.639 35.1064 41.3382 35.1611 41.0511 35.1064C40.764 35.0381 40.5043 34.874 40.3539 34.6143L35.8011 27.3408L31.2621 34.6006C31.1117 34.8467 30.8519 35.0244 30.5648 35.0928C30.2777 35.1611 29.9769 35.0928 29.7308 34.9287L25.6429 32.1943L28.9652 43.9658Z" fill="url(#paint2_linear_865_105)"/>
<defs>
<linearGradient id="paint0_linear_865_105" x1="35.801" y1="3.49707" x2="35.801" y2="66.9346" gradientUnits="userSpaceOnUse">
<stop stop-color="#FF7657"/>
<stop offset="1" stop-color="#CF4C2E"/>
</linearGradient>
<linearGradient id="paint1_linear_865_105" x1="35.801" y1="15.2412" x2="35.801" y2="55.1904" gradientUnits="userSpaceOnUse">
<stop stop-color="#FF7657"/>
<stop offset="1" stop-color="#CF4C2E"/>
</linearGradient>
<linearGradient id="paint2_linear_865_105" x1="35.7875" y1="24.1689" x2="35.7875" y2="46.1533" gradientUnits="userSpaceOnUse">
<stop stop-color="#FF7657"/>
<stop offset="1" stop-color="#CF4C2E"/>
</linearGradient>
</defs>
</svg>
