<svg width="71" height="71" viewBox="0 0 71 71" fill="none" xmlns="http://www.w3.org/2000/svg">
<g clip-path="url(#clip0_955_537)">
<path d="M50.6502 40.8373C50.6502 44.4462 53.5098 47.4088 57.1297 47.5087C60.9204 47.6103 63.9887 44.3486 63.9887 40.5998V40.3102C64.5928 39.0314 64.9429 37.6474 64.9429 36.3252C64.9429 32.438 62.0219 30.0228 57.3184 30.0228C52.6148 30.0228 49.6929 32.438 49.6929 36.3252C49.6929 37.6516 50.0433 39.0422 50.6502 40.325V40.8373ZM61.8416 40.5999C61.8416 43.1707 59.7368 45.4329 57.1885 45.3627C54.7285 45.2947 52.7975 43.2796 52.7975 40.8374V39.2877C52.7975 38.4206 53.502 37.7156 54.3692 37.7156H60.2689C61.136 37.7156 61.8416 38.4206 61.8416 39.2877V40.5999ZM57.3185 32.1701C58.9657 32.1701 62.7957 32.5748 62.7957 36.3252C62.7957 36.4036 62.7859 36.4843 62.7826 36.5636C62.1192 35.9512 61.2407 35.5681 60.269 35.5681H54.3693C53.4008 35.5681 52.5254 35.949 51.863 36.5578C51.8599 36.481 51.8405 36.4012 51.8405 36.3252C51.8402 32.5748 55.6713 32.1701 57.3185 32.1701Z" fill="white"/>
<path d="M57.0238 48.4C52.6301 48.4 48.7637 50.1512 46.3801 52.8086C43.3765 50.935 39.6895 49.9107 35.8007 49.9107C31.8237 49.9107 28.1679 51.0005 25.2528 52.8107C22.6016 49.8275 18.5848 48.3998 14.577 48.3998C7.33568 48.3998 1.44434 53.1086 1.44434 58.896V59.4968C1.44434 59.8831 1.65187 60.2401 1.98793 60.4304C6.96586 63.2546 13.0049 64.1857 18.636 63.2989C18.6337 63.39 18.6187 63.4785 18.6187 63.57V64.3731C18.6187 64.7595 18.8262 65.1164 19.1628 65.3068C29.1639 70.9796 42.5773 70.9003 52.4376 65.3068C52.7742 65.1164 52.9817 64.7595 52.9817 64.3731V63.57C52.9817 63.4832 52.9678 63.3987 52.9658 63.3122C58.6224 64.1758 64.6356 63.2543 69.6126 60.4304C69.9492 60.2401 70.1567 59.8831 70.1567 59.4968V58.896C70.1569 52.5899 63.6428 48.4 57.0238 48.4ZM3.59164 58.861C3.6168 54.2734 8.53512 50.5471 14.577 50.5471C17.8822 50.5471 21.2658 51.6711 23.4956 54.0573C21.1735 55.9552 19.544 58.3843 18.9163 61.0924C13.7058 62.0259 8.14875 61.2688 3.59164 58.861ZM50.8347 63.7401C41.8064 68.5994 29.7997 68.6015 20.7661 63.7401V63.5703C20.7661 57.2223 27.5104 52.0582 35.8007 52.0582C39.8708 52.0582 43.681 53.287 46.5297 55.5197C49.306 57.6822 50.8347 60.5414 50.8347 63.5704V63.7401ZM52.6888 61.0793C52.0817 58.4275 50.506 55.9969 48.1025 54.043C50.0975 51.9302 53.3491 50.5473 57.0238 50.5473C62.3272 50.5473 67.9826 53.7666 68.0097 58.8611C63.6496 61.1643 58.1687 62.0678 52.6888 61.0793Z" fill="white"/>
<path d="M8.20348 40.8373C8.20348 44.4456 11.0629 47.4088 14.683 47.5087C18.4814 47.6114 21.5415 44.3418 21.5415 40.5998V40.2912C22.1429 39.0177 22.4961 37.6426 22.4961 36.3252C22.4961 32.438 19.5745 30.0228 14.8711 30.0228C10.1683 30.0228 7.24658 32.438 7.24658 36.3252C7.24658 37.6513 7.59686 39.0412 8.20334 40.3236V40.8373H8.20348ZM19.3943 40.5999C19.3943 43.1503 17.3115 45.4328 14.7418 45.3627C12.2942 45.2951 10.3508 43.2926 10.3508 40.8374V39.2877C10.3508 38.4206 11.0558 37.7156 11.9229 37.7156H17.8226C18.6891 37.7156 19.3943 38.4206 19.3943 39.2877V40.5999ZM14.8711 32.1701C16.5183 32.1701 20.3489 32.5748 20.3489 36.3252C20.3489 36.4039 20.3396 36.4844 20.336 36.5639C19.6728 35.9514 18.7944 35.5681 17.8226 35.5681H11.9229C10.9507 35.5681 10.0717 35.9515 9.40838 36.5645C9.4051 36.485 9.39402 36.4039 9.39402 36.3252C9.39402 32.5748 13.2245 32.1701 14.8711 32.1701Z" fill="white"/>
<path d="M27.6473 39.4486C27.6473 44.0641 31.303 47.8722 35.9518 47.9989C40.8094 48.1348 44.7432 43.9341 44.7432 39.1315V38.7104C45.5534 37.0189 46.0181 35.1755 46.0181 33.4215C46.0181 28.4513 42.253 25.3635 36.1933 25.3635C30.1337 25.3635 26.3691 28.4513 26.3691 33.4215C26.3691 35.1719 26.838 37.0079 27.6472 38.695V39.4486H27.6473ZM42.5959 39.1315C42.5959 42.7719 39.6136 45.9533 36.0104 45.8527C32.5267 45.7581 29.7946 42.9017 29.7946 39.4486V37.3784C29.7946 36.0218 30.8981 34.9182 32.2549 34.9182H40.1352C41.4919 34.9182 42.596 36.0216 42.596 37.3784V39.1315H42.5959ZM36.1933 27.5108C38.5016 27.5108 43.8708 28.0869 43.8708 33.4215C43.8708 33.8075 43.8377 34.2004 43.7827 34.5957C42.9399 33.4943 41.6257 32.771 40.1351 32.771H32.2547C30.7667 32.771 29.4549 33.4919 28.612 34.5901C28.5558 34.1963 28.5164 33.8048 28.5164 33.4215C28.5164 28.0869 33.8851 27.5108 36.1933 27.5108Z" fill="white"/>
<path d="M28.2475 10.5948C31.8175 10.5948 34.7218 13.4991 34.7218 17.0686C34.7218 17.6615 35.213 18.1422 35.806 18.1422C36.3989 18.1422 36.8796 17.6615 36.8796 17.0686C36.8796 13.4991 39.7839 10.5948 43.3539 10.5948C43.9474 10.5948 44.4276 10.1141 44.4276 9.52116C44.4276 8.92821 43.9474 8.4475 43.3539 8.4475C39.7839 8.4475 36.8796 5.54319 36.8796 1.97319C36.8796 1.38024 36.3884 0.899536 35.7955 0.899536C35.2025 0.899536 34.7218 1.38024 34.7218 1.97319C34.7218 5.54961 31.8231 8.4475 28.2475 8.4475C27.6545 8.4475 27.1738 8.92821 27.1738 9.52116C27.1738 10.1141 27.6545 10.5948 28.2475 10.5948ZM35.8032 6.1319C36.5901 7.55473 37.7676 8.73311 39.1903 9.52102C37.7665 10.3096 36.5875 11.4896 35.8006 12.9145C35.0148 11.4913 33.8374 10.3122 32.4156 9.52376C33.8484 8.72887 35.0296 7.53204 35.8032 6.1319Z" fill="white"/>
<path d="M9.95012 21.0684C11.9077 21.0684 13.5003 22.6611 13.5003 24.619C13.5003 25.212 13.9878 25.6927 14.5808 25.6927C15.1737 25.6927 15.6544 25.212 15.6544 24.619C15.6544 22.6609 17.2471 21.0684 19.2046 21.0684C19.7976 21.0684 20.2783 20.5877 20.2783 19.9948C20.2783 19.4018 19.7976 18.9211 19.2046 18.9211C17.2471 18.9211 15.6544 17.3285 15.6544 15.371C15.6544 14.778 15.1669 14.2973 14.5739 14.2973C13.981 14.2973 13.5003 14.778 13.5003 15.371C13.5003 17.3285 11.9135 18.9211 9.95012 18.9211C9.35717 18.9211 8.87646 19.4018 8.87646 19.9948C8.87646 20.5877 9.35717 21.0684 9.95012 21.0684ZM14.5791 18.6942C14.9393 19.1943 15.3791 19.6341 15.8792 19.9948C15.378 20.356 14.9382 20.7969 14.577 21.298C14.2168 20.7973 13.7776 20.3575 13.2774 19.9963C13.7642 19.6451 14.2116 19.2025 14.5791 18.6942Z" fill="white"/>
<path d="M52.3969 21.0684C54.3544 21.0684 55.9471 22.6611 55.9471 24.619C55.9471 25.212 56.4335 25.6927 57.027 25.6927C57.6205 25.6927 58.1007 25.212 58.1007 24.619C58.1007 22.6609 59.6933 21.0684 61.6518 21.0684C62.2453 21.0684 62.7254 20.5877 62.7254 19.9948C62.7254 19.4018 62.2453 18.9211 61.6518 18.9211C59.6933 18.9211 58.1007 17.3285 58.1007 15.371C58.1007 14.778 57.6142 14.2973 57.0207 14.2973C56.4272 14.2973 55.9471 14.778 55.9471 15.371C55.9471 17.3311 54.3583 18.9211 52.3969 18.9211C51.8034 18.9211 51.3232 19.4018 51.3232 19.9948C51.3234 20.5877 51.8035 21.0684 52.3969 21.0684ZM57.0259 18.6942C57.3866 19.1943 57.8259 19.6341 58.326 19.9948C57.8248 20.356 57.3844 20.7964 57.0237 21.298C56.6631 20.7973 56.2247 20.3575 55.7246 19.9963C56.2178 19.6399 56.6621 19.1985 57.0259 18.6942Z" fill="white"/>
</g>
<defs>
<clipPath id="clip0_955_537">
<rect width="70" height="70" fill="white" transform="translate(0.800781 0.21582)"/>
</clipPath>
</defs>
</svg>
